# xmcd
#
# Track frame offsets:
#	150
#	10591
#	20637
#	32028
#	42586
#	55787
#	67740
#	80500
#	91185
#	103649
#	115419
#	127506
#	139313
#	149985
#	161841
#	172098
#	184663
#	195506
#	205866
#	216175
#	227068
#	237501
#
# Disc length: 3334 seconds
#
# Revision: 0
# Processed by: cddbd v1.5.2PL0 Copyright (c) Steve Scherf et al.
# Submitted via: EZCDAudioConverter 2.2.2.1
#
DISCID=380d0416
DTITLE=Eddie Noack - The Singles Collection 1949-1962
DYEAR=1900
DGENRE=Country
TTITLE0=Gentlemen Prefer Blondes
TTITLE1=Triflin' Mama Blues
TTITLE2=Simulated Diamonds
TTITLE3=The Pyramid Club
TTITLE4=Hungry But Happy
TTITLE5=Raindrops In The River
TTITLE6=Tragic Love
TTITLE7=Green Back Dollar
TTITLE8=Frown On The Moon
TTITLE9=Unlucky Me
TTITLE10=I Can't Run Away
TTITLE11=I'd Still Want You
TTITLE12=Music Makin' Mama From Memphis
TTITLE13=Please Mr. Postman
TTITLE14=There's A Place In My Heart
TTITLE15=I'm Going To See My Baby
TTITLE16=First And Lost Thing
TTITLE17=Nothing
TTITLE18=Too Hot To Handle
TTITLE19=How Does It Feel To Be A Winner
TTITLE20=(As The Band Played) Paul Jones
TTITLE21=Pride
EXTD=
EXTT0=
EXTT1=
EXTT2=
EXTT3=
EXTT4=
EXTT5=
EXTT6=
EXTT7=
EXTT8=
EXTT9=
EXTT10=
EXTT11=
EXTT12=
EXTT13=
EXTT14=
EXTT15=
EXTT16=
EXTT17=
EXTT18=
EXTT19=
EXTT20=
EXTT21=
PLAYORDER=
